<?xml version="1.0" encoding="utf-8"?>
<!-- Generator: Adobe Illustrator 15.0.0, SVG Export Plug-In . SVG Version: 6.00 Build 0)  -->
<!DOCTYPE svg PUBLIC "-//W3C//DTD SVG 1.1//EN" "http://www.w3.org/Graphics/SVG/1.1/DTD/svg11.dtd">
<svg version="1.1" id="Capa_1" xmlns="http://www.w3.org/2000/svg" xmlns:xlink="http://www.w3.org/1999/xlink" x="0px" y="0px"
	 width="600px" height="600px" viewBox="0 0 600 600" enable-background="new 0 0 600 600" xml:space="preserve">
<g>
	<path fill="#223E52" d="M500,423.139C500,465.587,465.587,500,423.139,500H176.862C134.412,500,100,465.587,100,423.139V176.862
		C100,134.413,134.412,100,176.862,100h246.276C465.587,100,500,134.413,500,176.862V423.139z"/>
	<path fill="#1C3347" d="M500,423.139V300.001l-86.385-89.677l-1.135,28.399l-3.339,136.275l-224.844,12.451L310.943,500h112.195
		C465.587,500,500,465.587,500,423.139z"/>
	<rect x="193.47" y="218.646" fill="#728390" width="211.766" height="165.168"/>
	<path fill="#E7BD79" d="M392.929,201.942h-185.86c-16.425,0-29.79,13.363-29.79,29.789v136.54c0,16.427,13.365,29.79,29.79,29.79
		h185.86c16.424,0,29.791-13.363,29.791-29.79V231.73C422.72,215.305,409.353,201.942,392.929,201.942z M399.403,368.271
		c0,3.573-2.904,6.478-6.475,6.478h-185.86c-3.571,0-6.475-2.904-6.475-6.478V231.73c0-3.572,2.904-6.476,6.475-6.476h185.86
		c3.57,0,6.475,2.904,6.475,6.476V368.271z"/>
	<g>
		<g>
			<path fill="#4D3D4D" d="M262.422,267.128c0,4.374-3.546,7.92-7.92,7.92h-17.619c-4.373,0-7.919-3.546-7.919-7.92V248.88
				c0-4.374,3.546-7.92,7.919-7.92h17.619c4.374,0,7.92,3.546,7.92,7.92V267.128z"/>
			<path fill="#9F4456" d="M316.079,267.128c0,4.374-3.542,7.92-7.918,7.92h-17.619c-4.374,0-7.919-3.546-7.919-7.92V248.88
				c0-4.374,3.545-7.92,7.919-7.92h17.619c4.376,0,7.918,3.546,7.918,7.92V267.128z"/>
			<path fill="#A49946" d="M369.738,267.128c0,4.374-3.547,7.92-7.919,7.92h-17.617c-4.376,0-7.922-3.546-7.922-7.92V248.88
				c0-4.374,3.546-7.92,7.922-7.92h17.617c4.372,0,7.919,3.546,7.919,7.92V267.128z"/>
		</g>
		<g>
			<path fill="#C65685" d="M262.422,309.124c0,4.372-3.546,7.922-7.92,7.922h-17.619c-4.373,0-7.919-3.55-7.919-7.922v-18.247
				c0-4.376,3.546-7.92,7.919-7.92h17.619c4.374,0,7.92,3.544,7.92,7.92V309.124z"/>
			<path fill="#E7BD79" d="M316.079,309.124c0,4.372-3.542,7.922-7.918,7.922h-17.619c-4.374,0-7.919-3.55-7.919-7.922v-18.247
				c0-4.376,3.545-7.92,7.919-7.92h17.619c4.376,0,7.918,3.544,7.918,7.92V309.124z"/>
			<path fill="#DCD4B6" d="M369.738,309.124c0,4.372-3.547,7.922-7.919,7.922h-17.617c-4.376,0-7.922-3.55-7.922-7.922v-18.247
				c0-4.376,3.546-7.92,7.922-7.92h17.617c4.372,0,7.919,3.544,7.919,7.92V309.124z"/>
		</g>
		<g>
			<path fill="#DC7D49" d="M262.422,351.122c0,4.372-3.546,7.919-7.92,7.919h-17.619c-4.373,0-7.919-3.547-7.919-7.919v-18.247
				c0-4.377,3.546-7.923,7.919-7.923h17.619c4.374,0,7.92,3.546,7.92,7.923V351.122z"/>
			<path fill="#223E52" d="M316.079,351.122c0,4.372-3.542,7.919-7.918,7.919h-17.619c-4.374,0-7.919-3.547-7.919-7.919v-18.247
				c0-4.377,3.545-7.923,7.919-7.923h17.619c4.376,0,7.918,3.546,7.918,7.923V351.122z"/>
			<path fill="#8DB3B3" d="M369.738,351.122c0,4.372-3.547,7.919-7.919,7.919h-17.617c-4.376,0-7.922-3.547-7.922-7.919v-18.247
				c0-4.377,3.546-7.923,7.922-7.923h17.617c4.372,0,7.919,3.546,7.919,7.923V351.122z"/>
		</g>
	</g>
</g>
</svg>
